<svg width="233" height="42" viewBox="0 0 233 42" fill="none" xmlns="http://www.w3.org/2000/svg">
<path d="M181 36.764L188.56 8.54H191.728L184.168 36.764H181ZM194.999 34.892V30.968L208.643 25.64L194.999 20.348V16.388L212.063 23.48V27.836L194.999 34.892Z" fill="#986DFF"/>
<path d="M25.432 34V12.048H34.232C36.4507 12.048 38.3493 12.4427 39.928 13.232C41.5067 14.0213 42.7227 15.2267 43.576 16.848C44.4293 18.448 44.856 20.5067 44.856 23.024C44.856 25.52 44.4293 27.5787 43.576 29.2C42.7227 30.8213 41.5067 32.0267 39.928 32.816C38.3493 33.6053 36.4507 34 34.232 34H25.432ZM29.592 30.448H34.232C35.256 30.448 36.1627 30.2987 36.952 30C37.7413 29.7013 38.4027 29.264 38.936 28.688C39.4693 28.0907 39.8747 27.3547 40.152 26.48C40.4293 25.584 40.568 24.5493 40.568 23.376V22.704C40.568 21.5093 40.4293 20.4747 40.152 19.6C39.8747 18.704 39.4693 17.968 38.936 17.392C38.4027 16.7947 37.7413 16.3467 36.952 16.048C36.1627 15.7493 35.256 15.6 34.232 15.6H29.592V30.448ZM48.7133 34V12.048H65.8333V15.6H52.8733V21.008H64.4253V24.56H52.8733V30.448H66.0253V34H48.7133ZM76.1013 34L68.1013 12.048H72.6133L77.8293 27.152C77.9146 27.3653 77.9999 27.6107 78.0853 27.888C78.1706 28.1653 78.2559 28.432 78.3413 28.688C78.4266 28.9227 78.5013 29.136 78.5653 29.328H78.7253C78.7893 29.1573 78.8533 28.9547 78.9173 28.72C79.0026 28.4853 79.0879 28.24 79.1733 27.984C79.2586 27.7067 79.3439 27.44 79.4293 27.184L84.6133 12.048H88.9333L80.9333 34H76.1013ZM91.682 34V12.048H103.234C104.855 12.048 106.199 12.3253 107.266 12.88C108.333 13.4347 109.133 14.224 109.666 15.248C110.199 16.272 110.466 17.4773 110.466 18.864C110.466 20.2933 110.146 21.5627 109.506 22.672C108.866 23.76 107.927 24.5813 106.69 25.136L111.234 34H106.69L102.658 25.84H95.842V34H91.682ZM95.842 22.352H102.914C103.981 22.352 104.802 22.0427 105.378 21.424C105.954 20.8053 106.242 19.952 106.242 18.864C106.242 18.16 106.114 17.5733 105.858 17.104C105.602 16.6133 105.229 16.24 104.738 15.984C104.247 15.728 103.639 15.6 102.914 15.6H95.842V22.352ZM124.543 34.384C122.261 34.384 120.287 33.9787 118.623 33.168C116.959 32.336 115.679 31.0773 114.783 29.392C113.909 27.7067 113.471 25.584 113.471 23.024C113.471 20.4427 113.909 18.32 114.783 16.656C115.679 14.9707 116.959 13.7227 118.623 12.912C120.287 12.08 122.261 11.664 124.543 11.664C126.847 11.664 128.821 12.08 130.463 12.912C132.127 13.7227 133.397 14.9707 134.271 16.656C135.167 18.32 135.615 20.4427 135.615 23.024C135.615 25.584 135.167 27.7067 134.271 29.392C133.397 31.0773 132.127 32.336 130.463 33.168C128.821 33.9787 126.847 34.384 124.543 34.384ZM124.543 30.864C125.653 30.864 126.623 30.704 127.455 30.384C128.309 30.064 129.023 29.5947 129.599 28.976C130.175 28.336 130.613 27.5573 130.911 26.64C131.21 25.7013 131.359 24.624 131.359 23.408V22.704C131.359 21.4667 131.21 20.3787 130.911 19.44C130.613 18.5013 130.175 17.7227 129.599 17.104C129.023 16.464 128.309 15.984 127.455 15.664C126.623 15.344 125.653 15.184 124.543 15.184C123.434 15.184 122.453 15.344 121.599 15.664C120.767 15.984 120.063 16.464 119.487 17.104C118.911 17.7227 118.474 18.5013 118.175 19.44C117.898 20.3787 117.759 21.4667 117.759 22.704V23.408C117.759 24.624 117.898 25.7013 118.175 26.64C118.474 27.5573 118.911 28.336 119.487 28.976C120.063 29.5947 120.767 30.064 121.599 30.384C122.453 30.704 123.434 30.864 124.543 30.864ZM149.575 34.384C147.292 34.384 145.319 33.9787 143.655 33.168C141.991 32.336 140.711 31.0773 139.815 29.392C138.94 27.7067 138.503 25.584 138.503 23.024C138.503 20.4427 138.94 18.32 139.815 16.656C140.711 14.9707 141.991 13.7227 143.655 12.912C145.319 12.08 147.292 11.664 149.575 11.664C151.879 11.664 153.852 12.08 155.495 12.912C157.159 13.7227 158.428 14.9707 159.303 16.656C160.199 18.32 160.647 20.4427 160.647 23.024C160.647 25.584 160.199 27.7067 159.303 29.392C158.428 31.0773 157.159 32.336 155.495 33.168C153.852 33.9787 151.879 34.384 149.575 34.384ZM149.575 30.864C150.684 30.864 151.655 30.704 152.487 30.384C153.34 30.064 154.055 29.5947 154.631 28.976C155.207 28.336 155.644 27.5573 155.943 26.64C156.241 25.7013 156.391 24.624 156.391 23.408V22.704C156.391 21.4667 156.241 20.3787 155.943 19.44C155.644 18.5013 155.207 17.7227 154.631 17.104C154.055 16.464 153.34 15.984 152.487 15.664C151.655 15.344 150.684 15.184 149.575 15.184C148.465 15.184 147.484 15.344 146.631 15.664C145.799 15.984 145.095 16.464 144.519 17.104C143.943 17.7227 143.505 18.5013 143.207 19.44C142.929 20.3787 142.791 21.4667 142.791 22.704V23.408C142.791 24.624 142.929 25.7013 143.207 26.64C143.505 27.5573 143.943 28.336 144.519 28.976C145.095 29.5947 145.799 30.064 146.631 30.384C147.484 30.704 148.465 30.864 149.575 30.864ZM169.089 34V15.632H162.081V12.048H180.289V15.632H173.249V34H169.089Z" fill="white"/>
<path d="M19.62 31.892L2.556 24.836V20.48L19.62 13.388V17.348L5.976 22.64L19.62 27.968V31.892Z" fill="#986DFF"/>
</svg>
